Patient4_TMGait_0pt3_03_left_15_GRF.mot
version=1
nRows=58
nColumns=19
inDegrees=no
endheader
time	F1x	F1y	F1z	M1x	M1y	M1z	F2x	F2y	F2z	M2x	M2y	M2z	EC1x	EC1y	EC1z	EC2x	EC2y	EC2z
27.27	-11.7215	18.1898	4.23	-5.0975	-6.0472	13.0959	-23.9045	778.0271	-55.0952	301.0928	66.9655	751.0663	-0.0592	0.0182	-0.0073	-0.0462	0.0165	0.9585
27.2904	-8.8699	13.3285	3.3219	-3.7565	-4.791	9.8209	-24.2285	783.8965	-54.9726	303.368	66.321	755.3558	-0.0592	0.0182	-0.0073	-0.0462	0.0165	0.9585
27.3109	-6.11	8.8125	2.3915	-2.4985	-3.4838	6.6946	-24.2382	790.7932	-54.6699	306.0012	65.3756	760.0535	-0.0592	0.0182	-0.0073	-0.0462	0.0165	0.9585
27.3313	-3.7766	5.1138	1.5811	-1.4597	-2.3303	4.086	-23.8027	798.4071	-54.1919	308.867	64.1089	764.8501	-0.0592	0.0182	-0.0073	-0.0462	0.0165	0.9585
27.3517	-2.0046	2.3821	0.95276	-0.68717	-1.424	2.1272	-22.8311	806.442	-53.5808	311.8475	62.5311	769.4935	-0.0592	0.0182	-0.0073	-0.0462	0.0165	0.9585
27.3721	-0.78893	0.55385	0.51413	-0.16658	-0.77994	0.78676	-21.287	814.3927	-52.8996	314.7437	60.6829	773.5774	-0.0592	0.0182	-0.0073	-0.0462	0.0165	0.9585
27.3926	-0.052272	-0.54769	0.24423	0.15033	-0.37194	-0.051286	-19.2163	821.3821	-52.2047	317.2126	58.6229	776.3871	-0.0592	0.0182	-0.0073	-0.0462	0.0165	0.9585
27.413	0.31325	-1.15	0.10783	0.32835	-0.15608	-0.54227	-16.7469	826.2705	-51.5159	318.8106	56.4048	777.0048	-0.0592	0.0182	-0.0073	-0.0462	0.0165	0.9585
27.4334	0.42042	-1.4863	0.065326	0.43674	-0.082007	-0.86269	-14.0472	827.9607	-50.8111	319.1135	54.0626	774.5729	-0.0592	0.0182	-0.0073	-0.0462	0.0165	0.9585
27.4539	0.36606	-1.7654	0.078045	0.5386	-0.097892	-1.1827	-11.275	825.7226	-50.0505	317.8422	51.6159	768.565	-0.0592	0.0182	-0.0073	-0.0462	0.0165	0.9585
27.4743	0.22669	-2.1584	0.1136	0.68597	-0.15622	-1.6404	-8.55	819.3935	-49.2071	314.9407	49.0902	758.948	-0.0592	0.0182	-0.0073	-0.0462	0.0165	0.9585
27.4947	0.06337	-2.7864	0.14683	0.91602	-0.2174	-2.3361	-5.9309	809.4102	-48.2847	310.5885	46.5239	746.1875	-0.0592	0.0182	-0.0073	-0.0462	0.0165	0.9585
27.5151	-0.073079	-3.7075	0.15411	1.2462	-0.2437	-3.3212	-3.4093	796.7298	-47.3248	305.1695	43.9702	731.1705	-0.0592	0.0182	-0.0073	-0.0462	0.0165	0.9585
27.5356	-0.13464	-4.8952	0.11272	1.6647	-0.19796	-4.5678	-0.95076	782.6122	-46.4025	299.1875	41.5047	715.0201	-0.0592	0.0182	-0.0073	-0.0462	0.0165	0.9585
27.556	-0.067939	-6.2008	0.0029495	2.1178	-0.043243	-5.9317	1.486	768.3705	-45.6046	293.1671	39.2117	698.8736	-0.0592	0.0182	-0.0073	-0.0462	0.0165	0.9585
27.5764	0.18711	-7.3113	-0.19328	2.4945	0.25753	-7.1021	3.9529	755.1665	-45.0048	287.5746	37.159	683.7115	-0.0592	0.0182	-0.0073	-0.0462	0.0165	0.9585
27.5969	0.69395	-7.7044	-0.48802	2.6119	0.7361	-7.5555	6.4969	743.8438	-44.6458	282.7525	35.3803	670.228	-0.0592	0.0182	-0.0073	-0.0462	0.0165	0.9585
27.6173	1.5095	-6.6068	-0.88034	2.2023	1.4098	-6.5196	9.1324	734.7693	-44.5383	278.8561	33.8811	658.7123	-0.0592	0.0182	-0.0073	-0.0462	0.0165	0.9585
27.6377	2.6595	-2.9847	-1.3482	0.91172	2.2651	-2.9585	11.8129	727.7496	-44.6625	275.8189	32.6501	648.9964	-0.0592	0.0182	-0.0073	-0.0462	0.0165	0.9585
27.6581	4.1091	4.4083	-1.8362	-1.6843	3.2329	4.3854	14.4264	722.071	-44.976	273.3668	31.6791	640.4919	-0.0592	0.0182	-0.0073	-0.0462	0.0165	0.9585
27.6786	5.7267	16.8903	-2.2382	-6.0306	4.1599	16.8476	16.8058	716.6109	-45.4216	271.0634	30.9694	632.2822	-0.0592	0.0182	-0.0073	-0.0462	0.0165	0.9585
27.699	7.2278	35.5735	-2.3788	-12.4952	4.7695	35.5701	18.7341	709.982	-45.9158	268.368	30.5165	623.2507	-0.0592	0.0182	-0.0073	-0.0462	0.0165	0.9585
27.7194	8.115	60.9016	-2.0027	-21.2072	4.6318	61.0394	19.9802	700.6929	-46.3365	264.6998	30.2938	612.2076	-0.0592	0.0182	-0.0073	-0.0462	0.0165	0.9585
27.7399	7.7576	92.1279	-0.81217	-31.8781	3.2272	92.55	20.3743	687.398	-46.5472	259.5375	30.2435	598.0765	-0.0592	0.0182	-0.0073	-0.0462	0.0165	0.9585
27.7603	5.8891	126.9846	1.4359	-43.6917	0.21604	127.8469	19.8548	669.2675	-46.4227	252.5602	30.2807	580.1944	-0.0592	0.0182	-0.0073	-0.0462	0.0165	0.9585
27.7807	2.9521	161.9266	4.7079	-55.4088	-4.2096	163.3265	18.5034	646.3085	-45.8806	243.7696	30.3079	558.5713	-0.0592	0.0182	-0.0073	-0.0462	0.0165	0.9585
27.8011	-0.48682	193.9706	8.5318	-66.0164	-9.3591	195.9213	16.5813	619.5032	-44.9254	233.5391	30.234	533.9869	-0.0592	0.0182	-0.0073	-0.0462	0.0165	0.9585
27.8216	-4.1938	222.5314	12.4277	-75.329	-14.6517	225.0398	14.4863	590.4782	-43.6509	222.4853	29.9859	507.7164	-0.0592	0.0182	-0.0073	-0.0462	0.0165	0.9585
27.842	-8.1166	248.8816	16.1052	-83.7908	-19.764	251.963	12.6123	560.7751	-42.1576	211.1951	29.4937	480.9562	-0.0592	0.0182	-0.0073	-0.0462	0.0165	0.9585
27.8624	-12.1542	274.6334	19.4304	-91.9586	-24.5176	278.2531	11.2063	531.3278	-40.4712	200.0295	28.682	454.4277	-0.0592	0.0182	-0.0073	-0.0462	0.0165	0.9585
27.8829	-16.1094	300.928	22.3974	-100.2269	-28.8343	304.9517	10.3281	502.3731	-38.5881	189.0848	27.522	428.3136	-0.0592	0.0182	-0.0073	-0.0462	0.0165	0.9585
27.9033	-19.6897	328.1523	25.0881	-108.7368	-32.6922	332.3052	9.8777	473.6465	-36.5311	178.2636	26.0653	402.4089	-0.0592	0.0182	-0.0073	-0.0462	0.0165	0.9585
27.9237	-22.5676	355.9218	27.6041	-117.3777	-36.0795	359.7619	9.6629	444.7029	-34.3338	167.3961	24.4074	376.3857	-0.0592	0.0182	-0.0073	-0.0462	0.0165	0.9585
27.9441	-24.4523	383.4505	30.0062	-125.9171	-38.9605	386.3691	9.4954	415.2322	-32.0206	156.3603	22.6384	350.0403	-0.0592	0.0182	-0.0073	-0.0462	0.0165	0.9585
27.9646	-25.1147	410.0586	32.2955	-134.1667	-41.2655	411.3105	9.2618	385.223	-29.6213	145.1451	20.824	323.4166	-0.0592	0.0182	-0.0073	-0.0462	0.0165	0.9585
27.985	-24.4483	435.4209	34.4381	-142.0556	-42.9353	434.1793	8.9429	354.9302	-27.1791	133.8394	19.005	296.768	-0.0592	0.0182	-0.0073	-0.0462	0.0165	0.9585
28.0054	-22.5154	459.5503	36.398	-149.6186	-43.9668	454.9838	8.5814	324.7336	-24.7384	122.5775	17.198	270.4326	-0.0592	0.0182	-0.0073	-0.0462	0.0165	0.9585
28.0259	-19.5457	482.7131	38.1657	-156.9597	-44.436	474.0567	8.2296	295.0043	-22.3393	111.4909	15.4145	244.7253	-0.0592	0.0182	-0.0073	-0.0462	0.0165	0.9585
28.0463	-15.8957	505.3693	39.7703	-164.2257	-44.494	491.9839	7.904	266.0229	-20.0113	100.6779	13.6733	219.8818	-0.0592	0.0182	-0.0073	-0.0462	0.0165	0.9585
28.0667	-11.9868	528.0656	41.2764	-171.5716	-44.3445	509.4845	7.571	237.9378	-17.772	90.1863	12.0011	196.0197	-0.0592	0.0182	-0.0073	-0.0462	0.0165	0.9585
28.0871	-8.2221	551.2978	42.7558	-179.1219	-44.1905	527.2464	7.1667	210.7678	-15.639	80.0149	10.435	173.141	-0.0592	0.0182	-0.0073	-0.0462	0.0165	0.9585
28.1076	-4.9178	575.3756	44.25	-186.9416	-44.1732	545.7643	6.6064	184.4693	-13.6342	70.1405	9.025	151.192	-0.0592	0.0182	-0.0073	-0.0462	0.0165	0.9585
28.128	-2.2558	600.3287	45.7461	-195.0172	-44.3376	565.2126	5.8095	159.0386	-11.7773	60.558	7.8175	130.1428	-0.0592	0.0182	-0.0073	-0.0462	0.0165	0.9585
28.1484	-0.27289	625.9326	47.1902	-203.2661	-44.645	585.4483	4.7282	134.615	-10.0775	51.3211	6.8387	110.0717	-0.0592	0.0182	-0.0073	-0.0462	0.0165	0.9585
28.1689	1.0707	651.8067	48.5258	-211.5606	-45.0269	606.1258	3.378	111.5164	-8.5382	42.5561	6.0865	91.1967	-0.0592	0.0182	-0.0073	-0.0462	0.0165	0.9585
28.1893	1.8365	677.5149	49.7333	-219.7512	-45.4409	626.8122	1.8556	90.1565	-7.1613	34.4287	5.5243	73.8072	-0.0592	0.0182	-0.0073	-0.0462	0.0165	0.9585
28.2097	2.1023	702.6518	50.8461	-227.694	-45.8893	647.0875	0.30993	70.9109	-5.9404	27.0918	5.087	58.1682	-0.0592	0.0182	-0.0073	-0.0462	0.0165	0.9585
28.2301	1.9612	726.8876	51.9291	-235.2719	-46.4011	666.593	-1.1028	54.0351	-4.8545	20.6515	4.6982	44.4604	-0.0592	0.0182	-0.0073	-0.0462	0.0165	0.9585
28.2506	1.5428	749.9226	53.0472	-242.3838	-46.9985	684.988	-2.2367	39.6453	-3.8721	15.1595	4.2788	32.7642	-0.0592	0.0182	-0.0073	-0.0462	0.0165	0.9585
28.271	1.0264	771.3358	54.2345	-248.8979	-47.664	701.8144	-2.9661	27.7359	-2.966	10.6182	3.7632	23.0733	-0.0592	0.0182	-0.0073	-0.0462	0.0165	0.9585
28.2914	0.60109	790.4873	55.4818	-254.6215	-48.3363	716.423	-3.2047	18.2113	-2.1257	6.9933	3.1158	15.3149	-0.0592	0.0182	-0.0073	-0.0462	0.0165	0.9585
28.3119	0.44013	806.5393	56.7413	-259.3035	-48.9212	728.0063	-2.9451	10.9255	-1.3685	4.2283	2.3535	9.3738	-0.0592	0.0182	-0.0073	-0.0462	0.0165	0.9585
28.3323	0.68191	818.5869	57.9404	-262.6723	-49.3078	735.7282	-2.3229	5.705	-0.7361	2.2539	1.5655	5.1106	-0.0592	0.0182	-0.0073	-0.0462	0.0165	0.9585
28.3527	1.4184	825.8518	58.994	-264.4927	-49.3904	738.8977	-1.5771	2.2944	-0.26234	0.96903	0.86827	2.3216	-0.0592	0.0182	-0.0073	-0.0462	0.0165	0.9585
28.3731	2.6961	827.9096	59.8233	-264.6365	-49.0862	737.1592	-0.87679	0.29797	0.052576	0.21992	0.32522	0.67905	-0.0592	0.0182	-0.0073	-0.0462	0.0165	0.9585
28.3936	4.4921	824.8579	60.3655	-263.1429	-48.3555	730.6478	-0.30648	-0.73027	0.23252	-0.16696	-0.051867	-0.19379	-0.0592	0.0182	-0.0073	-0.0462	0.0165	0.9585
28.414	6.7098	817.3729	60.5724	-260.2417	-47.2008	720.0307	0.10829	-1.2145	0.31085	-0.35662	-0.28267	-0.64896	-0.0592	0.0182	-0.0073	-0.0462	0.0165	0.9585
28.4344	9.2279	806.6511	60.4202	-256.335	-45.6559	706.4236	0.37887	-1.5213	0.32058	-0.49248	-0.39969	-0.99073	-0.0592	0.0182	-0.0073	-0.0462	0.0165	0.9585
